<mxfile host="app.diagrams.net" agent="Mozilla/5.0 (Macintosh; Intel Mac OS X 10_15_7) AppleWebKit/605.1.15 (KHTML, like Gecko) Version/18.1.1 Safari/605.1.15" version="25.0.3">
  <diagram name="Page-1" id="JYdTF-gxQg0Iv9MPzBLV">
    <mxGraphModel dx="4251" dy="4984" grid="1" gridSize="10" guides="1" tooltips="1" connect="1" arrows="1" fold="1" page="1" pageScale="1" pageWidth="827" pageHeight="1169" math="0" shadow="0">
      <root>
        <mxCell id="0" />
        <mxCell id="1" parent="0" />
        <mxCell id="2" value="Andrea Onyango" style="whiteSpace=wrap;strokeWidth=2;" parent="1" vertex="1">
          <mxGeometry x="2420" y="-2150" width="89" height="49" as="geometry" />
        </mxCell>
        <mxCell id="3" value="Cicilia" style="whiteSpace=wrap;strokeWidth=2;" parent="1" vertex="1">
          <mxGeometry x="990" y="-1780" width="90" height="49" as="geometry" />
        </mxCell>
        <mxCell id="5" value="Joseph Ombimah Onyango" style="whiteSpace=wrap;strokeWidth=2;" parent="1" vertex="1">
          <mxGeometry x="-200" y="130" width="82" height="44" as="geometry" />
        </mxCell>
        <mxCell id="6" value="Francis Obonyo" style="whiteSpace=wrap;strokeWidth=2;" parent="1" vertex="1">
          <mxGeometry x="2990" y="130" width="75" height="44" as="geometry" />
        </mxCell>
        <mxCell id="Kyfm_cYFZnKpqrGlaWJu-15" value="Christine Abwawo" style="whiteSpace=wrap;strokeWidth=2;" vertex="1" parent="1">
          <mxGeometry x="4830" y="160" width="60" height="41.5" as="geometry" />
        </mxCell>
        <mxCell id="Kyfm_cYFZnKpqrGlaWJu-17" value="" style="endArrow=classic;html=1;rounded=0;exitX=0.5;exitY=1;exitDx=0;exitDy=0;entryX=0.5;entryY=0;entryDx=0;entryDy=0;" edge="1" parent="1" source="3" target="6">
          <mxGeometry width="50" height="50" relative="1" as="geometry">
            <mxPoint x="360" y="260" as="sourcePoint" />
            <mxPoint x="340" y="370" as="targetPoint" />
          </mxGeometry>
        </mxCell>
        <mxCell id="Kyfm_cYFZnKpqrGlaWJu-19" value="" style="endArrow=classic;html=1;rounded=0;entryX=0.5;entryY=0;entryDx=0;entryDy=0;exitX=0.5;exitY=1;exitDx=0;exitDy=0;" edge="1" parent="1" source="3" target="Kyfm_cYFZnKpqrGlaWJu-15">
          <mxGeometry width="50" height="50" relative="1" as="geometry">
            <mxPoint x="190" y="160" as="sourcePoint" />
            <mxPoint x="410" y="210" as="targetPoint" />
          </mxGeometry>
        </mxCell>
        <mxCell id="Kyfm_cYFZnKpqrGlaWJu-20" value="" style="endArrow=classic;html=1;rounded=0;entryX=0.5;entryY=0;entryDx=0;entryDy=0;exitX=0.5;exitY=1;exitDx=0;exitDy=0;" edge="1" parent="1" source="3" target="5">
          <mxGeometry width="50" height="50" relative="1" as="geometry">
            <mxPoint x="190" y="90" as="sourcePoint" />
            <mxPoint x="240" y="220" as="targetPoint" />
          </mxGeometry>
        </mxCell>
        <mxCell id="Kyfm_cYFZnKpqrGlaWJu-21" value="" style="endArrow=classic;html=1;rounded=0;exitX=0.5;exitY=1;exitDx=0;exitDy=0;entryX=0.5;entryY=0;entryDx=0;entryDy=0;" edge="1" parent="1" source="5" target="Kyfm_cYFZnKpqrGlaWJu-22">
          <mxGeometry width="50" height="50" relative="1" as="geometry">
            <mxPoint x="360" y="260" as="sourcePoint" />
            <mxPoint x="49" y="310" as="targetPoint" />
          </mxGeometry>
        </mxCell>
        <mxCell id="Kyfm_cYFZnKpqrGlaWJu-22" value="Nereah Ombimah" style="whiteSpace=wrap;strokeWidth=2;" vertex="1" parent="1">
          <mxGeometry x="-140" y="226" width="75" height="44" as="geometry" />
        </mxCell>
        <mxCell id="Kyfm_cYFZnKpqrGlaWJu-26" value="Jane Otonde" style="whiteSpace=wrap;strokeWidth=2;" vertex="1" parent="1">
          <mxGeometry x="-720" y="330" width="75" height="44" as="geometry" />
        </mxCell>
        <mxCell id="Kyfm_cYFZnKpqrGlaWJu-27" value="George Ombimah Onyango" style="whiteSpace=wrap;strokeWidth=2;" vertex="1" parent="1">
          <mxGeometry x="-480" y="330" width="75" height="44" as="geometry" />
        </mxCell>
        <mxCell id="Kyfm_cYFZnKpqrGlaWJu-28" value="Patricia Otieno" style="whiteSpace=wrap;strokeWidth=2;" vertex="1" parent="1">
          <mxGeometry x="-240" y="330" width="75" height="44" as="geometry" />
        </mxCell>
        <mxCell id="Kyfm_cYFZnKpqrGlaWJu-30" value="Alfred Ombimah" style="whiteSpace=wrap;strokeWidth=2;" vertex="1" parent="1">
          <mxGeometry x="280" y="330" width="75" height="44" as="geometry" />
        </mxCell>
        <mxCell id="Kyfm_cYFZnKpqrGlaWJu-31" value="Arthur Ombimah" style="whiteSpace=wrap;strokeWidth=2;" vertex="1" parent="1">
          <mxGeometry x="520" y="330" width="75" height="44" as="geometry" />
        </mxCell>
        <mxCell id="Kyfm_cYFZnKpqrGlaWJu-32" value="James Ombimah" style="whiteSpace=wrap;strokeWidth=2;" vertex="1" parent="1">
          <mxGeometry x="830" y="330" width="75" height="44" as="geometry" />
        </mxCell>
        <mxCell id="Kyfm_cYFZnKpqrGlaWJu-33" value="Edward Ombimah" style="whiteSpace=wrap;strokeWidth=2;" vertex="1" parent="1">
          <mxGeometry x="1080" y="330" width="75" height="44" as="geometry" />
        </mxCell>
        <mxCell id="Kyfm_cYFZnKpqrGlaWJu-34" value="" style="endArrow=classic;html=1;rounded=0;exitX=0.5;exitY=1;exitDx=0;exitDy=0;entryX=0.5;entryY=0;entryDx=0;entryDy=0;" edge="1" parent="1" source="Kyfm_cYFZnKpqrGlaWJu-22" target="Kyfm_cYFZnKpqrGlaWJu-26">
          <mxGeometry width="50" height="50" relative="1" as="geometry">
            <mxPoint x="220" y="330" as="sourcePoint" />
            <mxPoint x="53" y="400" as="targetPoint" />
          </mxGeometry>
        </mxCell>
        <mxCell id="Kyfm_cYFZnKpqrGlaWJu-39" value="Jacqueline Ombimah" style="whiteSpace=wrap;strokeWidth=2;" vertex="1" parent="1">
          <mxGeometry x="1340" y="330" width="75" height="44" as="geometry" />
        </mxCell>
        <mxCell id="Kyfm_cYFZnKpqrGlaWJu-46" value="" style="endArrow=classic;html=1;rounded=0;exitX=0.5;exitY=1;exitDx=0;exitDy=0;entryX=0.5;entryY=0;entryDx=0;entryDy=0;" edge="1" parent="1" source="Kyfm_cYFZnKpqrGlaWJu-26" target="Kyfm_cYFZnKpqrGlaWJu-49">
          <mxGeometry width="50" height="50" relative="1" as="geometry">
            <mxPoint x="460" y="390" as="sourcePoint" />
            <mxPoint x="58" y="510" as="targetPoint" />
          </mxGeometry>
        </mxCell>
        <mxCell id="Kyfm_cYFZnKpqrGlaWJu-47" value="Ashley Otonde" style="whiteSpace=wrap;strokeWidth=2;" vertex="1" parent="1">
          <mxGeometry x="40" y="330" width="75" height="44" as="geometry" />
        </mxCell>
        <mxCell id="Kyfm_cYFZnKpqrGlaWJu-49" value="Ashley Otonde" style="whiteSpace=wrap;strokeWidth=2;" vertex="1" parent="1">
          <mxGeometry x="-870" y="454" width="75" height="44" as="geometry" />
        </mxCell>
        <mxCell id="Kyfm_cYFZnKpqrGlaWJu-50" value="Wesley Otonde" style="whiteSpace=wrap;strokeWidth=2;" vertex="1" parent="1">
          <mxGeometry x="-955" y="454" width="75" height="44" as="geometry" />
        </mxCell>
        <mxCell id="Kyfm_cYFZnKpqrGlaWJu-52" value="Jabulan&#xa;Richardi" style="whiteSpace=wrap;strokeWidth=2;" vertex="1" parent="1">
          <mxGeometry x="-990" y="600" width="75" height="44" as="geometry" />
        </mxCell>
        <mxCell id="Kyfm_cYFZnKpqrGlaWJu-53" value="" style="endArrow=classic;html=1;rounded=0;entryX=0.5;entryY=0;entryDx=0;entryDy=0;exitX=0.5;exitY=1;exitDx=0;exitDy=0;" edge="1" parent="1" source="Kyfm_cYFZnKpqrGlaWJu-50" target="Kyfm_cYFZnKpqrGlaWJu-52">
          <mxGeometry width="50" height="50" relative="1" as="geometry">
            <mxPoint x="149" y="650" as="sourcePoint" />
            <mxPoint x="199" y="600" as="targetPoint" />
          </mxGeometry>
        </mxCell>
        <mxCell id="Kyfm_cYFZnKpqrGlaWJu-56" value="Quinter Otonde" style="whiteSpace=wrap;strokeWidth=2;" vertex="1" parent="1">
          <mxGeometry x="-1040" y="454" width="75" height="44" as="geometry" />
        </mxCell>
        <mxCell id="Kyfm_cYFZnKpqrGlaWJu-59" value="" style="endArrow=classic;html=1;rounded=0;entryX=0.5;entryY=0;entryDx=0;entryDy=0;exitX=0.5;exitY=1;exitDx=0;exitDy=0;" edge="1" parent="1" source="Kyfm_cYFZnKpqrGlaWJu-22" target="Kyfm_cYFZnKpqrGlaWJu-27">
          <mxGeometry width="50" height="50" relative="1" as="geometry">
            <mxPoint x="-127.5" y="370" as="sourcePoint" />
            <mxPoint x="-77.5" y="320" as="targetPoint" />
          </mxGeometry>
        </mxCell>
        <mxCell id="Kyfm_cYFZnKpqrGlaWJu-61" value="" style="endArrow=classic;html=1;rounded=0;entryX=0.5;entryY=0;entryDx=0;entryDy=0;exitX=0.5;exitY=1;exitDx=0;exitDy=0;" edge="1" parent="1" source="Kyfm_cYFZnKpqrGlaWJu-22" target="Kyfm_cYFZnKpqrGlaWJu-28">
          <mxGeometry width="50" height="50" relative="1" as="geometry">
            <mxPoint x="-92" y="280" as="sourcePoint" />
            <mxPoint x="-122" y="450" as="targetPoint" />
          </mxGeometry>
        </mxCell>
        <mxCell id="Kyfm_cYFZnKpqrGlaWJu-65" value="" style="endArrow=classic;html=1;rounded=0;entryX=0.5;entryY=0;entryDx=0;entryDy=0;exitX=0.5;exitY=1;exitDx=0;exitDy=0;" edge="1" parent="1" source="Kyfm_cYFZnKpqrGlaWJu-22" target="Kyfm_cYFZnKpqrGlaWJu-31">
          <mxGeometry width="50" height="50" relative="1" as="geometry">
            <mxPoint x="-65" y="248" as="sourcePoint" />
            <mxPoint x="110" y="240" as="targetPoint" />
          </mxGeometry>
        </mxCell>
        <mxCell id="Kyfm_cYFZnKpqrGlaWJu-66" value="" style="endArrow=classic;html=1;rounded=0;entryX=0.5;entryY=0;entryDx=0;entryDy=0;exitX=0.5;exitY=1;exitDx=0;exitDy=0;" edge="1" parent="1" source="Kyfm_cYFZnKpqrGlaWJu-22" target="Kyfm_cYFZnKpqrGlaWJu-47">
          <mxGeometry width="50" height="50" relative="1" as="geometry">
            <mxPoint x="60" y="290" as="sourcePoint" />
            <mxPoint x="110" y="240" as="targetPoint" />
          </mxGeometry>
        </mxCell>
        <mxCell id="Kyfm_cYFZnKpqrGlaWJu-67" value="" style="endArrow=classic;html=1;rounded=0;entryX=0.5;entryY=0;entryDx=0;entryDy=0;exitX=0.5;exitY=1;exitDx=0;exitDy=0;" edge="1" parent="1" source="Kyfm_cYFZnKpqrGlaWJu-22" target="Kyfm_cYFZnKpqrGlaWJu-30">
          <mxGeometry width="50" height="50" relative="1" as="geometry">
            <mxPoint x="60" y="290" as="sourcePoint" />
            <mxPoint x="110" y="240" as="targetPoint" />
          </mxGeometry>
        </mxCell>
        <mxCell id="Kyfm_cYFZnKpqrGlaWJu-68" style="edgeStyle=orthogonalEdgeStyle;rounded=0;orthogonalLoop=1;jettySize=auto;html=1;exitX=0.25;exitY=1;exitDx=0;exitDy=0;entryX=0;entryY=0.75;entryDx=0;entryDy=0;" edge="1" parent="1" source="Kyfm_cYFZnKpqrGlaWJu-28" target="Kyfm_cYFZnKpqrGlaWJu-28">
          <mxGeometry relative="1" as="geometry" />
        </mxCell>
        <mxCell id="Kyfm_cYFZnKpqrGlaWJu-69" value="" style="endArrow=classic;html=1;rounded=0;entryX=0.5;entryY=0;entryDx=0;entryDy=0;exitX=0.5;exitY=1;exitDx=0;exitDy=0;" edge="1" parent="1" source="Kyfm_cYFZnKpqrGlaWJu-22" target="Kyfm_cYFZnKpqrGlaWJu-32">
          <mxGeometry width="50" height="50" relative="1" as="geometry">
            <mxPoint x="-92" y="280" as="sourcePoint" />
            <mxPoint x="568" y="340" as="targetPoint" />
          </mxGeometry>
        </mxCell>
        <mxCell id="Kyfm_cYFZnKpqrGlaWJu-70" value="" style="endArrow=classic;html=1;rounded=0;entryX=0.5;entryY=0;entryDx=0;entryDy=0;exitX=0.5;exitY=1;exitDx=0;exitDy=0;" edge="1" parent="1" source="Kyfm_cYFZnKpqrGlaWJu-22" target="Kyfm_cYFZnKpqrGlaWJu-33">
          <mxGeometry width="50" height="50" relative="1" as="geometry">
            <mxPoint x="690" y="400" as="sourcePoint" />
            <mxPoint x="740" y="350" as="targetPoint" />
          </mxGeometry>
        </mxCell>
        <mxCell id="Kyfm_cYFZnKpqrGlaWJu-71" value="" style="endArrow=classic;html=1;rounded=0;entryX=0.5;entryY=0;entryDx=0;entryDy=0;exitX=0.5;exitY=1;exitDx=0;exitDy=0;" edge="1" parent="1" source="Kyfm_cYFZnKpqrGlaWJu-22" target="Kyfm_cYFZnKpqrGlaWJu-39">
          <mxGeometry width="50" height="50" relative="1" as="geometry">
            <mxPoint x="-70" y="480" as="sourcePoint" />
            <mxPoint x="740" y="350" as="targetPoint" />
          </mxGeometry>
        </mxCell>
        <mxCell id="Kyfm_cYFZnKpqrGlaWJu-72" value="" style="endArrow=classic;html=1;rounded=0;exitX=0.5;exitY=1;exitDx=0;exitDy=0;entryX=0.5;entryY=0;entryDx=0;entryDy=0;" edge="1" parent="1" source="Kyfm_cYFZnKpqrGlaWJu-26" target="Kyfm_cYFZnKpqrGlaWJu-50">
          <mxGeometry width="50" height="50" relative="1" as="geometry">
            <mxPoint x="-460" y="620" as="sourcePoint" />
            <mxPoint x="-410" y="570" as="targetPoint" />
          </mxGeometry>
        </mxCell>
        <mxCell id="Kyfm_cYFZnKpqrGlaWJu-73" value="" style="endArrow=classic;html=1;rounded=0;exitX=0.5;exitY=1;exitDx=0;exitDy=0;entryX=0.5;entryY=0;entryDx=0;entryDy=0;" edge="1" parent="1" source="Kyfm_cYFZnKpqrGlaWJu-26" target="Kyfm_cYFZnKpqrGlaWJu-56">
          <mxGeometry width="50" height="50" relative="1" as="geometry">
            <mxPoint x="-460" y="620" as="sourcePoint" />
            <mxPoint x="-410" y="570" as="targetPoint" />
          </mxGeometry>
        </mxCell>
        <mxCell id="Kyfm_cYFZnKpqrGlaWJu-76" value="" style="endArrow=classic;html=1;rounded=0;exitX=0.5;exitY=1;exitDx=0;exitDy=0;entryX=0.5;entryY=0;entryDx=0;entryDy=0;" edge="1" parent="1" source="Kyfm_cYFZnKpqrGlaWJu-56" target="Kyfm_cYFZnKpqrGlaWJu-77">
          <mxGeometry width="50" height="50" relative="1" as="geometry">
            <mxPoint x="-1000" y="670" as="sourcePoint" />
            <mxPoint x="-1002" y="600" as="targetPoint" />
          </mxGeometry>
        </mxCell>
        <mxCell id="Kyfm_cYFZnKpqrGlaWJu-77" value="Trevor Baraka" style="whiteSpace=wrap;strokeWidth=2;" vertex="1" parent="1">
          <mxGeometry x="-1080" y="600" width="75" height="44" as="geometry" />
        </mxCell>
        <mxCell id="Kyfm_cYFZnKpqrGlaWJu-78" value="" style="endArrow=classic;html=1;rounded=0;exitX=0.5;exitY=1;exitDx=0;exitDy=0;entryX=0.5;entryY=0;entryDx=0;entryDy=0;" edge="1" parent="1" source="Kyfm_cYFZnKpqrGlaWJu-27" target="Kyfm_cYFZnKpqrGlaWJu-79">
          <mxGeometry width="50" height="50" relative="1" as="geometry">
            <mxPoint x="-450" y="620" as="sourcePoint" />
            <mxPoint x="-442" y="440" as="targetPoint" />
          </mxGeometry>
        </mxCell>
        <mxCell id="Kyfm_cYFZnKpqrGlaWJu-79" value="Neechi Ombimah" style="whiteSpace=wrap;strokeWidth=2;" vertex="1" parent="1">
          <mxGeometry x="-480" y="440" width="75" height="44" as="geometry" />
        </mxCell>
        <mxCell id="Kyfm_cYFZnKpqrGlaWJu-80" value="" style="endArrow=classic;html=1;rounded=0;entryX=0.5;entryY=0;entryDx=0;entryDy=0;exitX=0.5;exitY=1;exitDx=0;exitDy=0;" edge="1" parent="1" target="Kyfm_cYFZnKpqrGlaWJu-81" source="Kyfm_cYFZnKpqrGlaWJu-28">
          <mxGeometry width="50" height="50" relative="1" as="geometry">
            <mxPoint x="-200" y="400" as="sourcePoint" />
            <mxPoint x="-202" y="440" as="targetPoint" />
          </mxGeometry>
        </mxCell>
        <mxCell id="Kyfm_cYFZnKpqrGlaWJu-81" value="Adam Otieno" style="whiteSpace=wrap;strokeWidth=2;" vertex="1" parent="1">
          <mxGeometry x="-315" y="440" width="75" height="44" as="geometry" />
        </mxCell>
        <mxCell id="Kyfm_cYFZnKpqrGlaWJu-82" value="Nicole Otieno" style="whiteSpace=wrap;strokeWidth=2;" vertex="1" parent="1">
          <mxGeometry x="-165" y="440" width="75" height="44" as="geometry" />
        </mxCell>
        <mxCell id="Kyfm_cYFZnKpqrGlaWJu-83" value="" style="endArrow=classic;html=1;rounded=0;exitX=0.5;exitY=1;exitDx=0;exitDy=0;entryX=0.5;entryY=0;entryDx=0;entryDy=0;" edge="1" parent="1" source="Kyfm_cYFZnKpqrGlaWJu-28" target="Kyfm_cYFZnKpqrGlaWJu-82">
          <mxGeometry width="50" height="50" relative="1" as="geometry">
            <mxPoint x="-170" y="620" as="sourcePoint" />
            <mxPoint x="-120" y="570" as="targetPoint" />
          </mxGeometry>
        </mxCell>
        <mxCell id="Kyfm_cYFZnKpqrGlaWJu-84" value="" style="endArrow=classic;html=1;rounded=0;exitX=0.5;exitY=1;exitDx=0;exitDy=0;" edge="1" parent="1" source="Kyfm_cYFZnKpqrGlaWJu-30">
          <mxGeometry width="50" height="50" relative="1" as="geometry">
            <mxPoint x="260" y="620" as="sourcePoint" />
            <mxPoint x="318" y="440" as="targetPoint" />
          </mxGeometry>
        </mxCell>
        <mxCell id="Kyfm_cYFZnKpqrGlaWJu-85" value="Nereah Totty" style="whiteSpace=wrap;strokeWidth=2;" vertex="1" parent="1">
          <mxGeometry x="280" y="440" width="75" height="44" as="geometry" />
        </mxCell>
        <mxCell id="Kyfm_cYFZnKpqrGlaWJu-86" value="Leo Joe Gem" style="whiteSpace=wrap;strokeWidth=2;" vertex="1" parent="1">
          <mxGeometry x="400" y="440" width="75" height="44" as="geometry" />
        </mxCell>
        <mxCell id="Kyfm_cYFZnKpqrGlaWJu-87" value="Eve Elsie Jaber" style="whiteSpace=wrap;strokeWidth=2;" vertex="1" parent="1">
          <mxGeometry x="520" y="440" width="75" height="44" as="geometry" />
        </mxCell>
        <mxCell id="Kyfm_cYFZnKpqrGlaWJu-88" value="Arthur Hawi Junior" style="whiteSpace=wrap;strokeWidth=2;" vertex="1" parent="1">
          <mxGeometry x="640" y="440" width="75" height="44" as="geometry" />
        </mxCell>
        <mxCell id="Kyfm_cYFZnKpqrGlaWJu-89" value="" style="endArrow=classic;html=1;rounded=0;exitX=0.5;exitY=1;exitDx=0;exitDy=0;entryX=0.5;entryY=0;entryDx=0;entryDy=0;" edge="1" parent="1" source="Kyfm_cYFZnKpqrGlaWJu-31" target="Kyfm_cYFZnKpqrGlaWJu-86">
          <mxGeometry width="50" height="50" relative="1" as="geometry">
            <mxPoint x="280" y="620" as="sourcePoint" />
            <mxPoint x="330" y="570" as="targetPoint" />
          </mxGeometry>
        </mxCell>
        <mxCell id="Kyfm_cYFZnKpqrGlaWJu-90" value="" style="endArrow=classic;html=1;rounded=0;exitX=0.5;exitY=1;exitDx=0;exitDy=0;entryX=0.5;entryY=0;entryDx=0;entryDy=0;" edge="1" parent="1" source="Kyfm_cYFZnKpqrGlaWJu-31" target="Kyfm_cYFZnKpqrGlaWJu-87">
          <mxGeometry width="50" height="50" relative="1" as="geometry">
            <mxPoint x="290" y="630" as="sourcePoint" />
            <mxPoint x="340" y="580" as="targetPoint" />
          </mxGeometry>
        </mxCell>
        <mxCell id="Kyfm_cYFZnKpqrGlaWJu-91" value="" style="endArrow=classic;html=1;rounded=0;exitX=0.5;exitY=1;exitDx=0;exitDy=0;entryX=0.5;entryY=0;entryDx=0;entryDy=0;" edge="1" parent="1" source="Kyfm_cYFZnKpqrGlaWJu-31" target="Kyfm_cYFZnKpqrGlaWJu-88">
          <mxGeometry width="50" height="50" relative="1" as="geometry">
            <mxPoint x="300" y="640" as="sourcePoint" />
            <mxPoint x="350" y="590" as="targetPoint" />
          </mxGeometry>
        </mxCell>
        <mxCell id="Kyfm_cYFZnKpqrGlaWJu-92" value="" style="endArrow=classic;html=1;rounded=0;exitX=0.5;exitY=1;exitDx=0;exitDy=0;entryX=0.5;entryY=0;entryDx=0;entryDy=0;" edge="1" parent="1" source="Kyfm_cYFZnKpqrGlaWJu-32" target="Kyfm_cYFZnKpqrGlaWJu-93">
          <mxGeometry width="50" height="50" relative="1" as="geometry">
            <mxPoint x="730" y="620" as="sourcePoint" />
            <mxPoint x="868" y="440" as="targetPoint" />
          </mxGeometry>
        </mxCell>
        <mxCell id="Kyfm_cYFZnKpqrGlaWJu-93" value="Lesly Ombimah" style="whiteSpace=wrap;strokeWidth=2;" vertex="1" parent="1">
          <mxGeometry x="755" y="440" width="75" height="44" as="geometry" />
        </mxCell>
        <mxCell id="Kyfm_cYFZnKpqrGlaWJu-94" value="Latisha Ombimah" style="whiteSpace=wrap;strokeWidth=2;" vertex="1" parent="1">
          <mxGeometry x="905" y="440" width="75" height="44" as="geometry" />
        </mxCell>
        <mxCell id="Kyfm_cYFZnKpqrGlaWJu-95" value="" style="endArrow=classic;html=1;rounded=0;exitX=0.5;exitY=1;exitDx=0;exitDy=0;entryX=0.5;entryY=0;entryDx=0;entryDy=0;" edge="1" parent="1" source="Kyfm_cYFZnKpqrGlaWJu-32" target="Kyfm_cYFZnKpqrGlaWJu-94">
          <mxGeometry width="50" height="50" relative="1" as="geometry">
            <mxPoint x="878" y="384" as="sourcePoint" />
            <mxPoint x="803" y="450" as="targetPoint" />
          </mxGeometry>
        </mxCell>
        <mxCell id="Kyfm_cYFZnKpqrGlaWJu-96" value="" style="endArrow=classic;html=1;rounded=0;exitX=0.5;exitY=1;exitDx=0;exitDy=0;entryX=0.5;entryY=0;entryDx=0;entryDy=0;" edge="1" parent="1" source="Kyfm_cYFZnKpqrGlaWJu-33" target="Kyfm_cYFZnKpqrGlaWJu-98">
          <mxGeometry width="50" height="50" relative="1" as="geometry">
            <mxPoint x="940" y="620" as="sourcePoint" />
            <mxPoint x="1070" y="420" as="targetPoint" />
          </mxGeometry>
        </mxCell>
        <mxCell id="Kyfm_cYFZnKpqrGlaWJu-97" value="" style="endArrow=classic;html=1;rounded=0;exitX=0.5;exitY=1;exitDx=0;exitDy=0;entryX=0.5;entryY=0;entryDx=0;entryDy=0;" edge="1" parent="1" source="Kyfm_cYFZnKpqrGlaWJu-33" target="Kyfm_cYFZnKpqrGlaWJu-99">
          <mxGeometry width="50" height="50" relative="1" as="geometry">
            <mxPoint x="1128" y="384" as="sourcePoint" />
            <mxPoint x="1200" y="430" as="targetPoint" />
          </mxGeometry>
        </mxCell>
        <mxCell id="Kyfm_cYFZnKpqrGlaWJu-98" value="Dali Ombimah" style="whiteSpace=wrap;strokeWidth=2;" vertex="1" parent="1">
          <mxGeometry x="1005" y="440" width="75" height="44" as="geometry" />
        </mxCell>
        <mxCell id="Kyfm_cYFZnKpqrGlaWJu-99" value="Cathy Ombimah" style="whiteSpace=wrap;strokeWidth=2;" vertex="1" parent="1">
          <mxGeometry x="1155" y="440" width="75" height="44" as="geometry" />
        </mxCell>
        <mxCell id="Kyfm_cYFZnKpqrGlaWJu-100" value="Nereah Ombimah" style="whiteSpace=wrap;strokeWidth=2;" vertex="1" parent="1">
          <mxGeometry x="1415" y="440" width="75" height="44" as="geometry" />
        </mxCell>
        <mxCell id="Kyfm_cYFZnKpqrGlaWJu-101" value="Xavier Ombimah" style="whiteSpace=wrap;strokeWidth=2;" vertex="1" parent="1">
          <mxGeometry x="1265" y="440" width="75" height="44" as="geometry" />
        </mxCell>
        <mxCell id="Kyfm_cYFZnKpqrGlaWJu-102" value="" style="endArrow=classic;html=1;rounded=0;exitX=0.5;exitY=1;exitDx=0;exitDy=0;entryX=0.5;entryY=0;entryDx=0;entryDy=0;" edge="1" parent="1" source="Kyfm_cYFZnKpqrGlaWJu-39" target="Kyfm_cYFZnKpqrGlaWJu-101">
          <mxGeometry width="50" height="50" relative="1" as="geometry">
            <mxPoint x="940" y="620" as="sourcePoint" />
            <mxPoint x="990" y="570" as="targetPoint" />
          </mxGeometry>
        </mxCell>
        <mxCell id="Kyfm_cYFZnKpqrGlaWJu-103" value="" style="endArrow=classic;html=1;rounded=0;exitX=0.5;exitY=1;exitDx=0;exitDy=0;entryX=0.5;entryY=0;entryDx=0;entryDy=0;" edge="1" parent="1" source="Kyfm_cYFZnKpqrGlaWJu-39" target="Kyfm_cYFZnKpqrGlaWJu-100">
          <mxGeometry width="50" height="50" relative="1" as="geometry">
            <mxPoint x="940" y="620" as="sourcePoint" />
            <mxPoint x="990" y="570" as="targetPoint" />
          </mxGeometry>
        </mxCell>
        <mxCell id="Kyfm_cYFZnKpqrGlaWJu-104" value="Benedict" style="whiteSpace=wrap;strokeWidth=2;" vertex="1" parent="1">
          <mxGeometry x="2880" y="430" width="75" height="44" as="geometry" />
        </mxCell>
        <mxCell id="Kyfm_cYFZnKpqrGlaWJu-105" value="Akinyi" style="whiteSpace=wrap;strokeWidth=2;" vertex="1" parent="1">
          <mxGeometry x="2640" y="430" width="75" height="44" as="geometry" />
        </mxCell>
        <mxCell id="Kyfm_cYFZnKpqrGlaWJu-106" value="Thomas Obonyo" style="whiteSpace=wrap;strokeWidth=2;" vertex="1" parent="1">
          <mxGeometry x="2160" y="430" width="75" height="44" as="geometry" />
        </mxCell>
        <mxCell id="Kyfm_cYFZnKpqrGlaWJu-107" value="Aluoch" style="whiteSpace=wrap;strokeWidth=2;" vertex="1" parent="1">
          <mxGeometry x="3120" y="430" width="75" height="44" as="geometry" />
        </mxCell>
        <mxCell id="Kyfm_cYFZnKpqrGlaWJu-108" value="Agwings Obonyo" style="whiteSpace=wrap;strokeWidth=2;" vertex="1" parent="1">
          <mxGeometry x="2400" y="430" width="75" height="44" as="geometry" />
        </mxCell>
        <mxCell id="Kyfm_cYFZnKpqrGlaWJu-109" value="Dani" style="whiteSpace=wrap;strokeWidth=2;" vertex="1" parent="1">
          <mxGeometry x="3600" y="430" width="75" height="44" as="geometry" />
        </mxCell>
        <mxCell id="Kyfm_cYFZnKpqrGlaWJu-110" value="Olido" style="whiteSpace=wrap;strokeWidth=2;" vertex="1" parent="1">
          <mxGeometry x="3840" y="430" width="75" height="44" as="geometry" />
        </mxCell>
        <mxCell id="Kyfm_cYFZnKpqrGlaWJu-111" value="George" style="whiteSpace=wrap;strokeWidth=2;" vertex="1" parent="1">
          <mxGeometry x="3360" y="430" width="75" height="44" as="geometry" />
        </mxCell>
        <mxCell id="Kyfm_cYFZnKpqrGlaWJu-112" value="" style="endArrow=classic;html=1;rounded=0;exitX=0.5;exitY=1;exitDx=0;exitDy=0;entryX=0.5;entryY=0;entryDx=0;entryDy=0;" edge="1" parent="1" source="6" target="Kyfm_cYFZnKpqrGlaWJu-106">
          <mxGeometry width="50" height="50" relative="1" as="geometry">
            <mxPoint x="2200" y="180" as="sourcePoint" />
            <mxPoint x="2250" y="130" as="targetPoint" />
          </mxGeometry>
        </mxCell>
        <mxCell id="Kyfm_cYFZnKpqrGlaWJu-113" value="" style="endArrow=classic;html=1;rounded=0;exitX=0.5;exitY=1;exitDx=0;exitDy=0;entryX=0.5;entryY=0;entryDx=0;entryDy=0;" edge="1" parent="1" source="6" target="Kyfm_cYFZnKpqrGlaWJu-108">
          <mxGeometry width="50" height="50" relative="1" as="geometry">
            <mxPoint x="2200" y="180" as="sourcePoint" />
            <mxPoint x="2250" y="130" as="targetPoint" />
          </mxGeometry>
        </mxCell>
        <mxCell id="Kyfm_cYFZnKpqrGlaWJu-114" value="" style="endArrow=classic;html=1;rounded=0;exitX=0.5;exitY=1;exitDx=0;exitDy=0;entryX=0.5;entryY=0;entryDx=0;entryDy=0;" edge="1" parent="1" source="6" target="Kyfm_cYFZnKpqrGlaWJu-105">
          <mxGeometry width="50" height="50" relative="1" as="geometry">
            <mxPoint x="2200" y="180" as="sourcePoint" />
            <mxPoint x="2250" y="130" as="targetPoint" />
          </mxGeometry>
        </mxCell>
        <mxCell id="Kyfm_cYFZnKpqrGlaWJu-115" value="" style="endArrow=classic;html=1;rounded=0;exitX=0.5;exitY=1;exitDx=0;exitDy=0;entryX=0.5;entryY=0;entryDx=0;entryDy=0;" edge="1" parent="1" source="6" target="Kyfm_cYFZnKpqrGlaWJu-104">
          <mxGeometry width="50" height="50" relative="1" as="geometry">
            <mxPoint x="2200" y="180" as="sourcePoint" />
            <mxPoint x="3010" y="420" as="targetPoint" />
          </mxGeometry>
        </mxCell>
        <mxCell id="Kyfm_cYFZnKpqrGlaWJu-116" value="" style="endArrow=classic;html=1;rounded=0;exitX=0.5;exitY=1;exitDx=0;exitDy=0;entryX=0.5;entryY=0;entryDx=0;entryDy=0;" edge="1" parent="1" source="6" target="Kyfm_cYFZnKpqrGlaWJu-107">
          <mxGeometry width="50" height="50" relative="1" as="geometry">
            <mxPoint x="2200" y="180" as="sourcePoint" />
            <mxPoint x="2250" y="130" as="targetPoint" />
          </mxGeometry>
        </mxCell>
        <mxCell id="Kyfm_cYFZnKpqrGlaWJu-117" value="" style="endArrow=classic;html=1;rounded=0;exitX=0.5;exitY=1;exitDx=0;exitDy=0;entryX=0.5;entryY=0;entryDx=0;entryDy=0;" edge="1" parent="1" source="6" target="Kyfm_cYFZnKpqrGlaWJu-111">
          <mxGeometry width="50" height="50" relative="1" as="geometry">
            <mxPoint x="2200" y="180" as="sourcePoint" />
            <mxPoint x="2250" y="130" as="targetPoint" />
          </mxGeometry>
        </mxCell>
        <mxCell id="Kyfm_cYFZnKpqrGlaWJu-118" value="" style="endArrow=classic;html=1;rounded=0;exitX=0.5;exitY=1;exitDx=0;exitDy=0;entryX=0.5;entryY=0;entryDx=0;entryDy=0;" edge="1" parent="1" source="6" target="Kyfm_cYFZnKpqrGlaWJu-109">
          <mxGeometry width="50" height="50" relative="1" as="geometry">
            <mxPoint x="3080" y="180" as="sourcePoint" />
            <mxPoint x="3130" y="130" as="targetPoint" />
          </mxGeometry>
        </mxCell>
        <mxCell id="Kyfm_cYFZnKpqrGlaWJu-119" value="" style="endArrow=classic;html=1;rounded=0;exitX=0.5;exitY=1;exitDx=0;exitDy=0;entryX=0.5;entryY=0;entryDx=0;entryDy=0;" edge="1" parent="1" source="6" target="Kyfm_cYFZnKpqrGlaWJu-110">
          <mxGeometry width="50" height="50" relative="1" as="geometry">
            <mxPoint x="3080" y="180" as="sourcePoint" />
            <mxPoint x="3130" y="130" as="targetPoint" />
          </mxGeometry>
        </mxCell>
        <mxCell id="Kyfm_cYFZnKpqrGlaWJu-121" value="" style="endArrow=classic;html=1;rounded=0;exitX=0.5;exitY=1;exitDx=0;exitDy=0;entryX=0.5;entryY=0;entryDx=0;entryDy=0;" edge="1" parent="1" source="2" target="3">
          <mxGeometry width="50" height="50" relative="1" as="geometry">
            <mxPoint x="1550" y="290" as="sourcePoint" />
            <mxPoint x="1600" y="240" as="targetPoint" />
          </mxGeometry>
        </mxCell>
        <mxCell id="Kyfm_cYFZnKpqrGlaWJu-123" value="Roslidia/Olido" style="whiteSpace=wrap;strokeWidth=2;" vertex="1" parent="1">
          <mxGeometry x="9020" y="-1740" width="90" height="49" as="geometry" />
        </mxCell>
        <mxCell id="Kyfm_cYFZnKpqrGlaWJu-124" value="" style="endArrow=classic;startArrow=classic;html=1;rounded=0;entryX=0;entryY=0.5;entryDx=0;entryDy=0;exitX=1;exitY=0.5;exitDx=0;exitDy=0;" edge="1" parent="1" source="3" target="Kyfm_cYFZnKpqrGlaWJu-123">
          <mxGeometry width="50" height="50" relative="1" as="geometry">
            <mxPoint x="1770" y="-710" as="sourcePoint" />
            <mxPoint x="1820" y="-760" as="targetPoint" />
          </mxGeometry>
        </mxCell>
        <mxCell id="Kyfm_cYFZnKpqrGlaWJu-128" value="Lorna" style="whiteSpace=wrap;strokeWidth=2;" vertex="1" parent="1">
          <mxGeometry x="8490" y="-1490" width="90" height="49" as="geometry" />
        </mxCell>
        <mxCell id="Kyfm_cYFZnKpqrGlaWJu-129" value="Bernadette" style="whiteSpace=wrap;strokeWidth=2;" vertex="1" parent="1">
          <mxGeometry x="11350" y="-1490" width="90" height="49" as="geometry" />
        </mxCell>
        <mxCell id="Kyfm_cYFZnKpqrGlaWJu-131" value="John Ogenga" style="whiteSpace=wrap;strokeWidth=2;" vertex="1" parent="1">
          <mxGeometry x="10180" y="-1490" width="90" height="49" as="geometry" />
        </mxCell>
        <mxCell id="Kyfm_cYFZnKpqrGlaWJu-132" value="" style="endArrow=classic;html=1;rounded=0;exitX=0.5;exitY=1;exitDx=0;exitDy=0;entryX=0.5;entryY=0;entryDx=0;entryDy=0;" edge="1" parent="1" source="Kyfm_cYFZnKpqrGlaWJu-123" target="Kyfm_cYFZnKpqrGlaWJu-177">
          <mxGeometry width="50" height="50" relative="1" as="geometry">
            <mxPoint x="9360" y="-1310" as="sourcePoint" />
            <mxPoint x="9969" y="-1480" as="targetPoint" />
          </mxGeometry>
        </mxCell>
        <mxCell id="Kyfm_cYFZnKpqrGlaWJu-133" value="" style="endArrow=classic;html=1;rounded=0;entryX=0.5;entryY=0;entryDx=0;entryDy=0;exitX=0.5;exitY=1;exitDx=0;exitDy=0;" edge="1" parent="1" source="Kyfm_cYFZnKpqrGlaWJu-123" target="Kyfm_cYFZnKpqrGlaWJu-128">
          <mxGeometry width="50" height="50" relative="1" as="geometry">
            <mxPoint x="9075" y="-1620" as="sourcePoint" />
            <mxPoint x="9566" y="-1470" as="targetPoint" />
          </mxGeometry>
        </mxCell>
        <mxCell id="Kyfm_cYFZnKpqrGlaWJu-134" value="" style="endArrow=classic;html=1;rounded=0;exitX=0.5;exitY=1;exitDx=0;exitDy=0;entryX=0.5;entryY=0;entryDx=0;entryDy=0;" edge="1" parent="1" source="Kyfm_cYFZnKpqrGlaWJu-123" target="Kyfm_cYFZnKpqrGlaWJu-131">
          <mxGeometry width="50" height="50" relative="1" as="geometry">
            <mxPoint x="9360" y="-1310" as="sourcePoint" />
            <mxPoint x="9410" y="-1360" as="targetPoint" />
          </mxGeometry>
        </mxCell>
        <mxCell id="Kyfm_cYFZnKpqrGlaWJu-135" value="" style="endArrow=classic;html=1;rounded=0;exitX=0.5;exitY=1;exitDx=0;exitDy=0;entryX=0.5;entryY=0;entryDx=0;entryDy=0;" edge="1" parent="1" source="Kyfm_cYFZnKpqrGlaWJu-123" target="Kyfm_cYFZnKpqrGlaWJu-129">
          <mxGeometry width="50" height="50" relative="1" as="geometry">
            <mxPoint x="9360" y="-1310" as="sourcePoint" />
            <mxPoint x="9410" y="-1360" as="targetPoint" />
          </mxGeometry>
        </mxCell>
        <mxCell id="Kyfm_cYFZnKpqrGlaWJu-136" value="William Ojwang" style="whiteSpace=wrap;strokeWidth=2;" vertex="1" parent="1">
          <mxGeometry x="7767" y="-1330" width="90" height="49" as="geometry" />
        </mxCell>
        <mxCell id="Kyfm_cYFZnKpqrGlaWJu-137" value="Monica Awiti" style="whiteSpace=wrap;strokeWidth=2;" vertex="1" parent="1">
          <mxGeometry x="8000" y="-1330" width="80" height="49" as="geometry" />
        </mxCell>
        <mxCell id="Kyfm_cYFZnKpqrGlaWJu-139" value="" style="endArrow=classic;html=1;rounded=0;exitX=0.5;exitY=1;exitDx=0;exitDy=0;entryX=0.5;entryY=0;entryDx=0;entryDy=0;" edge="1" parent="1" source="Kyfm_cYFZnKpqrGlaWJu-128" target="Kyfm_cYFZnKpqrGlaWJu-178">
          <mxGeometry width="50" height="50" relative="1" as="geometry">
            <mxPoint x="9150" y="-1420" as="sourcePoint" />
            <mxPoint x="9165" y="-1350" as="targetPoint" />
          </mxGeometry>
        </mxCell>
        <mxCell id="Kyfm_cYFZnKpqrGlaWJu-140" value="" style="endArrow=classic;html=1;rounded=0;exitX=0.5;exitY=1;exitDx=0;exitDy=0;entryX=0.5;entryY=0;entryDx=0;entryDy=0;" edge="1" parent="1" source="Kyfm_cYFZnKpqrGlaWJu-128" target="Kyfm_cYFZnKpqrGlaWJu-137">
          <mxGeometry width="50" height="50" relative="1" as="geometry">
            <mxPoint x="9150" y="-1420" as="sourcePoint" />
            <mxPoint x="9200" y="-1470" as="targetPoint" />
          </mxGeometry>
        </mxCell>
        <mxCell id="Kyfm_cYFZnKpqrGlaWJu-141" value="" style="endArrow=classic;html=1;rounded=0;exitX=0.5;exitY=1;exitDx=0;exitDy=0;entryX=0.5;entryY=0;entryDx=0;entryDy=0;" edge="1" parent="1" source="Kyfm_cYFZnKpqrGlaWJu-128" target="Kyfm_cYFZnKpqrGlaWJu-136">
          <mxGeometry width="50" height="50" relative="1" as="geometry">
            <mxPoint x="9150" y="-1420" as="sourcePoint" />
            <mxPoint x="9200" y="-1470" as="targetPoint" />
          </mxGeometry>
        </mxCell>
        <mxCell id="Kyfm_cYFZnKpqrGlaWJu-142" value="Yona Obiero" style="whiteSpace=wrap;strokeWidth=2;" vertex="1" parent="1">
          <mxGeometry x="2610" y="-2150" width="89" height="49" as="geometry" />
        </mxCell>
        <mxCell id="Kyfm_cYFZnKpqrGlaWJu-143" value="" style="whiteSpace=wrap;strokeWidth=2;fillColor=#66FFC2;" vertex="1" parent="1">
          <mxGeometry x="2780" y="-2150" width="89" height="49" as="geometry" />
        </mxCell>
        <mxCell id="Kyfm_cYFZnKpqrGlaWJu-144" value="" style="whiteSpace=wrap;strokeWidth=2;fillColor=#59FF64;" vertex="1" parent="1">
          <mxGeometry x="2930" y="-2150" width="89" height="49" as="geometry" />
        </mxCell>
        <mxCell id="Kyfm_cYFZnKpqrGlaWJu-145" value="" style="whiteSpace=wrap;strokeWidth=2;fillColor=#69FFA5;" vertex="1" parent="1">
          <mxGeometry x="3113" y="-2150" width="89" height="49" as="geometry" />
        </mxCell>
        <mxCell id="Kyfm_cYFZnKpqrGlaWJu-146" value="Oudo " style="whiteSpace=wrap;strokeWidth=2;" vertex="1" parent="1">
          <mxGeometry x="2475" y="-2387" width="89" height="49" as="geometry" />
        </mxCell>
        <mxCell id="Kyfm_cYFZnKpqrGlaWJu-147" value="" style="endArrow=classic;html=1;rounded=0;exitX=0.5;exitY=1;exitDx=0;exitDy=0;entryX=0.5;entryY=0;entryDx=0;entryDy=0;" edge="1" parent="1" source="Kyfm_cYFZnKpqrGlaWJu-146" target="2">
          <mxGeometry width="50" height="50" relative="1" as="geometry">
            <mxPoint x="2600" y="-2060" as="sourcePoint" />
            <mxPoint x="2650" y="-2110" as="targetPoint" />
          </mxGeometry>
        </mxCell>
        <mxCell id="Kyfm_cYFZnKpqrGlaWJu-148" value="Rafael Okinyi" style="whiteSpace=wrap;strokeWidth=2;" vertex="1" parent="1">
          <mxGeometry x="2590" y="-2387" width="89" height="49" as="geometry" />
        </mxCell>
        <mxCell id="Kyfm_cYFZnKpqrGlaWJu-149" value="Emmanuel Ombai" style="whiteSpace=wrap;strokeWidth=2;" vertex="1" parent="1">
          <mxGeometry x="2715" y="-2387" width="89" height="49" as="geometry" />
        </mxCell>
        <mxCell id="Kyfm_cYFZnKpqrGlaWJu-150" value="Rebecca" style="whiteSpace=wrap;strokeWidth=2;" vertex="1" parent="1">
          <mxGeometry x="4080" y="430" width="75" height="44" as="geometry" />
        </mxCell>
        <mxCell id="Kyfm_cYFZnKpqrGlaWJu-151" value="" style="endArrow=classic;html=1;rounded=0;exitX=0.5;exitY=1;exitDx=0;exitDy=0;entryX=0.5;entryY=0;entryDx=0;entryDy=0;" edge="1" parent="1" source="6" target="Kyfm_cYFZnKpqrGlaWJu-150">
          <mxGeometry width="50" height="50" relative="1" as="geometry">
            <mxPoint x="3038" y="184" as="sourcePoint" />
            <mxPoint x="3888" y="440" as="targetPoint" />
          </mxGeometry>
        </mxCell>
        <mxCell id="Kyfm_cYFZnKpqrGlaWJu-157" value="Odera" style="whiteSpace=wrap;strokeWidth=2;" vertex="1" parent="1">
          <mxGeometry x="4390" y="430" width="75" height="44" as="geometry" />
        </mxCell>
        <mxCell id="Kyfm_cYFZnKpqrGlaWJu-158" value="Omware" style="whiteSpace=wrap;strokeWidth=2;" vertex="1" parent="1">
          <mxGeometry x="4610" y="430" width="75" height="44" as="geometry" />
        </mxCell>
        <mxCell id="Kyfm_cYFZnKpqrGlaWJu-159" value="Catherine" style="whiteSpace=wrap;strokeWidth=2;" vertex="1" parent="1">
          <mxGeometry x="5040" y="430" width="75" height="44" as="geometry" />
        </mxCell>
        <mxCell id="Kyfm_cYFZnKpqrGlaWJu-160" value="Apiyo" style="whiteSpace=wrap;strokeWidth=2;" vertex="1" parent="1">
          <mxGeometry x="4822.5" y="430" width="75" height="44" as="geometry" />
        </mxCell>
        <mxCell id="Kyfm_cYFZnKpqrGlaWJu-161" value="Opiyo Odongo" style="whiteSpace=wrap;strokeWidth=2;" vertex="1" parent="1">
          <mxGeometry x="5250" y="430" width="75" height="44" as="geometry" />
        </mxCell>
        <mxCell id="Kyfm_cYFZnKpqrGlaWJu-162" value="Ajwang" style="whiteSpace=wrap;strokeWidth=2;" vertex="1" parent="1">
          <mxGeometry x="5490" y="430" width="75" height="44" as="geometry" />
        </mxCell>
        <mxCell id="Kyfm_cYFZnKpqrGlaWJu-163" value="Abiya" style="whiteSpace=wrap;strokeWidth=2;" vertex="1" parent="1">
          <mxGeometry x="5714" y="430" width="75" height="44" as="geometry" />
        </mxCell>
        <mxCell id="Kyfm_cYFZnKpqrGlaWJu-164" value="Odongo" style="whiteSpace=wrap;strokeWidth=2;" vertex="1" parent="1">
          <mxGeometry x="6190" y="430" width="75" height="44" as="geometry" />
        </mxCell>
        <mxCell id="Kyfm_cYFZnKpqrGlaWJu-165" value="Celine" style="whiteSpace=wrap;strokeWidth=2;" vertex="1" parent="1">
          <mxGeometry x="5940" y="430" width="75" height="44" as="geometry" />
        </mxCell>
        <mxCell id="Kyfm_cYFZnKpqrGlaWJu-168" value="" style="endArrow=classic;html=1;rounded=0;entryX=0.5;entryY=0;entryDx=0;entryDy=0;exitX=0.5;exitY=1;exitDx=0;exitDy=0;" edge="1" parent="1" source="Kyfm_cYFZnKpqrGlaWJu-15" target="Kyfm_cYFZnKpqrGlaWJu-165">
          <mxGeometry width="50" height="50" relative="1" as="geometry">
            <mxPoint x="5000" y="228" as="sourcePoint" />
            <mxPoint x="5640" y="374" as="targetPoint" />
          </mxGeometry>
        </mxCell>
        <mxCell id="Kyfm_cYFZnKpqrGlaWJu-169" value="" style="endArrow=classic;html=1;rounded=0;entryX=0.5;entryY=0;entryDx=0;entryDy=0;exitX=0.75;exitY=1;exitDx=0;exitDy=0;" edge="1" parent="1" source="Kyfm_cYFZnKpqrGlaWJu-15" target="Kyfm_cYFZnKpqrGlaWJu-161">
          <mxGeometry width="50" height="50" relative="1" as="geometry">
            <mxPoint x="4540" y="279" as="sourcePoint" />
            <mxPoint x="5180" y="425" as="targetPoint" />
          </mxGeometry>
        </mxCell>
        <mxCell id="Kyfm_cYFZnKpqrGlaWJu-170" value="" style="endArrow=classic;html=1;rounded=0;entryX=0.5;entryY=0;entryDx=0;entryDy=0;exitX=0.5;exitY=1;exitDx=0;exitDy=0;" edge="1" parent="1" source="Kyfm_cYFZnKpqrGlaWJu-15" target="Kyfm_cYFZnKpqrGlaWJu-163">
          <mxGeometry width="50" height="50" relative="1" as="geometry">
            <mxPoint x="4860" y="279" as="sourcePoint" />
            <mxPoint x="5500" y="425" as="targetPoint" />
          </mxGeometry>
        </mxCell>
        <mxCell id="Kyfm_cYFZnKpqrGlaWJu-171" value="" style="endArrow=classic;html=1;rounded=0;entryX=0.5;entryY=0;entryDx=0;entryDy=0;exitX=0.5;exitY=1;exitDx=0;exitDy=0;" edge="1" parent="1" source="Kyfm_cYFZnKpqrGlaWJu-15" target="Kyfm_cYFZnKpqrGlaWJu-159">
          <mxGeometry width="50" height="50" relative="1" as="geometry">
            <mxPoint x="4120" y="260" as="sourcePoint" />
            <mxPoint x="4760" y="406" as="targetPoint" />
          </mxGeometry>
        </mxCell>
        <mxCell id="Kyfm_cYFZnKpqrGlaWJu-172" value="" style="endArrow=classic;html=1;rounded=0;entryX=0.5;entryY=0;entryDx=0;entryDy=0;exitX=0.5;exitY=1;exitDx=0;exitDy=0;" edge="1" parent="1" source="Kyfm_cYFZnKpqrGlaWJu-15" target="Kyfm_cYFZnKpqrGlaWJu-160">
          <mxGeometry width="50" height="50" relative="1" as="geometry">
            <mxPoint x="4300" y="240" as="sourcePoint" />
            <mxPoint x="4940" y="386" as="targetPoint" />
          </mxGeometry>
        </mxCell>
        <mxCell id="Kyfm_cYFZnKpqrGlaWJu-173" value="" style="endArrow=classic;html=1;rounded=0;entryX=0.5;entryY=0;entryDx=0;entryDy=0;exitX=0.5;exitY=1;exitDx=0;exitDy=0;" edge="1" parent="1" source="Kyfm_cYFZnKpqrGlaWJu-15" target="Kyfm_cYFZnKpqrGlaWJu-158">
          <mxGeometry width="50" height="50" relative="1" as="geometry">
            <mxPoint x="4780" y="220" as="sourcePoint" />
            <mxPoint x="4795" y="356" as="targetPoint" />
          </mxGeometry>
        </mxCell>
        <mxCell id="Kyfm_cYFZnKpqrGlaWJu-174" value="" style="endArrow=classic;html=1;rounded=0;entryX=0.25;entryY=0;entryDx=0;entryDy=0;exitX=0.5;exitY=1;exitDx=0;exitDy=0;" edge="1" parent="1" source="Kyfm_cYFZnKpqrGlaWJu-15" target="Kyfm_cYFZnKpqrGlaWJu-157">
          <mxGeometry width="50" height="50" relative="1" as="geometry">
            <mxPoint x="3990" y="220" as="sourcePoint" />
            <mxPoint x="4630" y="366" as="targetPoint" />
          </mxGeometry>
        </mxCell>
        <mxCell id="Kyfm_cYFZnKpqrGlaWJu-175" value="" style="endArrow=classic;html=1;rounded=0;entryX=0.5;entryY=0;entryDx=0;entryDy=0;exitX=0.5;exitY=1;exitDx=0;exitDy=0;" edge="1" parent="1" source="Kyfm_cYFZnKpqrGlaWJu-15" target="Kyfm_cYFZnKpqrGlaWJu-164">
          <mxGeometry width="50" height="50" relative="1" as="geometry">
            <mxPoint x="5040" y="160" as="sourcePoint" />
            <mxPoint x="5800" y="320" as="targetPoint" />
          </mxGeometry>
        </mxCell>
        <mxCell id="Kyfm_cYFZnKpqrGlaWJu-176" value="" style="endArrow=classic;html=1;rounded=0;entryX=0.25;entryY=0;entryDx=0;entryDy=0;exitX=0.5;exitY=1;exitDx=0;exitDy=0;" edge="1" parent="1" source="Kyfm_cYFZnKpqrGlaWJu-131" target="Kyfm_cYFZnKpqrGlaWJu-195">
          <mxGeometry width="50" height="50" relative="1" as="geometry">
            <mxPoint x="8960" y="-1580" as="sourcePoint" />
            <mxPoint x="9120" y="-1434" as="targetPoint" />
          </mxGeometry>
        </mxCell>
        <mxCell id="Kyfm_cYFZnKpqrGlaWJu-177" value="Seruya" style="whiteSpace=wrap;strokeWidth=2;" vertex="1" parent="1">
          <mxGeometry x="9390" y="-1490" width="90" height="49" as="geometry" />
        </mxCell>
        <mxCell id="Kyfm_cYFZnKpqrGlaWJu-178" value="Jack Odawo" style="whiteSpace=wrap;strokeWidth=2;" vertex="1" parent="1">
          <mxGeometry x="8240" y="-1330" width="80" height="49" as="geometry" />
        </mxCell>
        <mxCell id="Kyfm_cYFZnKpqrGlaWJu-179" value="Rose" style="whiteSpace=wrap;strokeWidth=2;" vertex="1" parent="1">
          <mxGeometry x="8480" y="-1330" width="80" height="49" as="geometry" />
        </mxCell>
        <mxCell id="Kyfm_cYFZnKpqrGlaWJu-180" value="Mos" style="whiteSpace=wrap;strokeWidth=2;" vertex="1" parent="1">
          <mxGeometry x="8710" y="-1330" width="80" height="49" as="geometry" />
        </mxCell>
        <mxCell id="Kyfm_cYFZnKpqrGlaWJu-181" value="" style="endArrow=classic;html=1;rounded=0;exitX=0.5;exitY=1;exitDx=0;exitDy=0;entryX=0.5;entryY=0;entryDx=0;entryDy=0;" edge="1" parent="1" source="Kyfm_cYFZnKpqrGlaWJu-128" target="Kyfm_cYFZnKpqrGlaWJu-179">
          <mxGeometry width="50" height="50" relative="1" as="geometry">
            <mxPoint x="8965" y="-1421" as="sourcePoint" />
            <mxPoint x="8995" y="-1340" as="targetPoint" />
          </mxGeometry>
        </mxCell>
        <mxCell id="Kyfm_cYFZnKpqrGlaWJu-182" value="" style="endArrow=classic;html=1;rounded=0;exitX=0.5;exitY=1;exitDx=0;exitDy=0;entryX=0.5;entryY=0;entryDx=0;entryDy=0;" edge="1" parent="1" source="Kyfm_cYFZnKpqrGlaWJu-128" target="Kyfm_cYFZnKpqrGlaWJu-180">
          <mxGeometry width="50" height="50" relative="1" as="geometry">
            <mxPoint x="8975" y="-1411" as="sourcePoint" />
            <mxPoint x="9005" y="-1330" as="targetPoint" />
          </mxGeometry>
        </mxCell>
        <mxCell id="Kyfm_cYFZnKpqrGlaWJu-183" value="Onyango" style="whiteSpace=wrap;strokeWidth=2;" vertex="1" parent="1">
          <mxGeometry x="8920" y="-1330" width="80" height="49" as="geometry" />
        </mxCell>
        <mxCell id="Kyfm_cYFZnKpqrGlaWJu-184" value="" style="endArrow=classic;html=1;rounded=0;exitX=0.5;exitY=1;exitDx=0;exitDy=0;entryX=0.5;entryY=0;entryDx=0;entryDy=0;" edge="1" parent="1" source="Kyfm_cYFZnKpqrGlaWJu-128" target="Kyfm_cYFZnKpqrGlaWJu-183">
          <mxGeometry width="50" height="50" relative="1" as="geometry">
            <mxPoint x="8965" y="-1421" as="sourcePoint" />
            <mxPoint x="9385" y="-1340" as="targetPoint" />
          </mxGeometry>
        </mxCell>
        <mxCell id="Kyfm_cYFZnKpqrGlaWJu-185" value="" style="whiteSpace=wrap;strokeWidth=2;fillColor=#B14AFF;" vertex="1" parent="1">
          <mxGeometry x="9440" y="-1330" width="90" height="49" as="geometry" />
        </mxCell>
        <mxCell id="Kyfm_cYFZnKpqrGlaWJu-186" value="" style="whiteSpace=wrap;strokeWidth=2;fillColor=#9D3BFF;" vertex="1" parent="1">
          <mxGeometry x="9600" y="-1330" width="90" height="49" as="geometry" />
        </mxCell>
        <mxCell id="Kyfm_cYFZnKpqrGlaWJu-187" value="" style="whiteSpace=wrap;strokeWidth=2;fillColor=#9E4AFF;" vertex="1" parent="1">
          <mxGeometry x="9760" y="-1330" width="90" height="49" as="geometry" />
        </mxCell>
        <mxCell id="Kyfm_cYFZnKpqrGlaWJu-188" value="Waswa" style="whiteSpace=wrap;strokeWidth=2;" vertex="1" parent="1">
          <mxGeometry x="9150" y="-1330" width="90" height="49" as="geometry" />
        </mxCell>
        <mxCell id="Kyfm_cYFZnKpqrGlaWJu-189" value="Onyango" style="whiteSpace=wrap;strokeWidth=2;" vertex="1" parent="1">
          <mxGeometry x="9280" y="-1330" width="90" height="49" as="geometry" />
        </mxCell>
        <mxCell id="Kyfm_cYFZnKpqrGlaWJu-190" value="" style="endArrow=classic;html=1;rounded=0;entryX=0.5;entryY=0;entryDx=0;entryDy=0;exitX=0.5;exitY=1;exitDx=0;exitDy=0;" edge="1" parent="1" source="Kyfm_cYFZnKpqrGlaWJu-177" target="Kyfm_cYFZnKpqrGlaWJu-185">
          <mxGeometry width="50" height="50" relative="1" as="geometry">
            <mxPoint x="8970" y="-1570" as="sourcePoint" />
            <mxPoint x="9130" y="-1424" as="targetPoint" />
          </mxGeometry>
        </mxCell>
        <mxCell id="Kyfm_cYFZnKpqrGlaWJu-191" value="" style="endArrow=classic;html=1;rounded=0;entryX=0.5;entryY=0;entryDx=0;entryDy=0;exitX=0.5;exitY=1;exitDx=0;exitDy=0;" edge="1" parent="1" source="Kyfm_cYFZnKpqrGlaWJu-177" target="Kyfm_cYFZnKpqrGlaWJu-186">
          <mxGeometry width="50" height="50" relative="1" as="geometry">
            <mxPoint x="8980" y="-1560" as="sourcePoint" />
            <mxPoint x="9140" y="-1414" as="targetPoint" />
          </mxGeometry>
        </mxCell>
        <mxCell id="Kyfm_cYFZnKpqrGlaWJu-192" value="" style="endArrow=classic;html=1;rounded=0;entryX=0.5;entryY=0;entryDx=0;entryDy=0;exitX=0.5;exitY=1;exitDx=0;exitDy=0;" edge="1" parent="1" source="Kyfm_cYFZnKpqrGlaWJu-177" target="Kyfm_cYFZnKpqrGlaWJu-187">
          <mxGeometry width="50" height="50" relative="1" as="geometry">
            <mxPoint x="8990" y="-1550" as="sourcePoint" />
            <mxPoint x="9150" y="-1404" as="targetPoint" />
          </mxGeometry>
        </mxCell>
        <mxCell id="Kyfm_cYFZnKpqrGlaWJu-193" value="" style="endArrow=classic;html=1;rounded=0;entryX=0.5;entryY=0;entryDx=0;entryDy=0;exitX=0.5;exitY=1;exitDx=0;exitDy=0;" edge="1" parent="1" source="Kyfm_cYFZnKpqrGlaWJu-177" target="Kyfm_cYFZnKpqrGlaWJu-188">
          <mxGeometry width="50" height="50" relative="1" as="geometry">
            <mxPoint x="8970" y="-1570" as="sourcePoint" />
            <mxPoint x="9130" y="-1424" as="targetPoint" />
          </mxGeometry>
        </mxCell>
        <mxCell id="Kyfm_cYFZnKpqrGlaWJu-194" value="" style="endArrow=classic;html=1;rounded=0;entryX=0.5;entryY=0;entryDx=0;entryDy=0;exitX=0.5;exitY=1;exitDx=0;exitDy=0;" edge="1" parent="1" source="Kyfm_cYFZnKpqrGlaWJu-177" target="Kyfm_cYFZnKpqrGlaWJu-189">
          <mxGeometry width="50" height="50" relative="1" as="geometry">
            <mxPoint x="8980" y="-1560" as="sourcePoint" />
            <mxPoint x="9140" y="-1414" as="targetPoint" />
          </mxGeometry>
        </mxCell>
        <mxCell id="Kyfm_cYFZnKpqrGlaWJu-195" value="Onyango" style="whiteSpace=wrap;strokeWidth=2;" vertex="1" parent="1">
          <mxGeometry x="9960" y="-1330" width="80" height="49" as="geometry" />
        </mxCell>
        <mxCell id="Kyfm_cYFZnKpqrGlaWJu-196" value="Otur" style="whiteSpace=wrap;strokeWidth=2;" vertex="1" parent="1">
          <mxGeometry x="10150" y="-1330" width="80" height="49" as="geometry" />
        </mxCell>
        <mxCell id="Kyfm_cYFZnKpqrGlaWJu-197" value="" style="whiteSpace=wrap;strokeWidth=2;fillColor=#FF7F36;" vertex="1" parent="1">
          <mxGeometry x="10320" y="-1330" width="90" height="49" as="geometry" />
        </mxCell>
        <mxCell id="Kyfm_cYFZnKpqrGlaWJu-198" value="" style="whiteSpace=wrap;strokeWidth=2;fillColor=#FF8138;" vertex="1" parent="1">
          <mxGeometry x="10480" y="-1330" width="80" height="49" as="geometry" />
        </mxCell>
        <mxCell id="Kyfm_cYFZnKpqrGlaWJu-199" value="" style="whiteSpace=wrap;strokeWidth=2;fillColor=#FF843D;" vertex="1" parent="1">
          <mxGeometry x="10640" y="-1330" width="80" height="49" as="geometry" />
        </mxCell>
        <mxCell id="Kyfm_cYFZnKpqrGlaWJu-200" value="Oti" style="whiteSpace=wrap;strokeWidth=2;" vertex="1" parent="1">
          <mxGeometry x="10800" y="-1330" width="80" height="49" as="geometry" />
        </mxCell>
        <mxCell id="Kyfm_cYFZnKpqrGlaWJu-201" value="" style="endArrow=classic;html=1;rounded=0;entryX=0.5;entryY=0;entryDx=0;entryDy=0;exitX=0.5;exitY=1;exitDx=0;exitDy=0;" edge="1" parent="1" source="Kyfm_cYFZnKpqrGlaWJu-131" target="Kyfm_cYFZnKpqrGlaWJu-196">
          <mxGeometry width="50" height="50" relative="1" as="geometry">
            <mxPoint x="8970" y="-1570" as="sourcePoint" />
            <mxPoint x="9130" y="-1424" as="targetPoint" />
          </mxGeometry>
        </mxCell>
        <mxCell id="Kyfm_cYFZnKpqrGlaWJu-202" value="" style="endArrow=classic;html=1;rounded=0;entryX=0.5;entryY=0;entryDx=0;entryDy=0;exitX=0.5;exitY=1;exitDx=0;exitDy=0;" edge="1" parent="1" source="Kyfm_cYFZnKpqrGlaWJu-131" target="Kyfm_cYFZnKpqrGlaWJu-200">
          <mxGeometry width="50" height="50" relative="1" as="geometry">
            <mxPoint x="9740" y="-1480" as="sourcePoint" />
            <mxPoint x="10030" y="-1420" as="targetPoint" />
          </mxGeometry>
        </mxCell>
        <mxCell id="Kyfm_cYFZnKpqrGlaWJu-203" value="" style="endArrow=classic;html=1;rounded=0;entryX=0.5;entryY=0;entryDx=0;entryDy=0;exitX=0.5;exitY=1;exitDx=0;exitDy=0;" edge="1" parent="1" source="Kyfm_cYFZnKpqrGlaWJu-131" target="Kyfm_cYFZnKpqrGlaWJu-197">
          <mxGeometry width="50" height="50" relative="1" as="geometry">
            <mxPoint x="9890" y="-1480" as="sourcePoint" />
            <mxPoint x="9150" y="-1404" as="targetPoint" />
          </mxGeometry>
        </mxCell>
        <mxCell id="Kyfm_cYFZnKpqrGlaWJu-204" value="" style="endArrow=classic;html=1;rounded=0;entryX=0.5;entryY=0;entryDx=0;entryDy=0;exitX=0.5;exitY=1;exitDx=0;exitDy=0;" edge="1" parent="1" source="Kyfm_cYFZnKpqrGlaWJu-131" target="Kyfm_cYFZnKpqrGlaWJu-198">
          <mxGeometry width="50" height="50" relative="1" as="geometry">
            <mxPoint x="10235" y="-1431" as="sourcePoint" />
            <mxPoint x="10375" y="-1320" as="targetPoint" />
          </mxGeometry>
        </mxCell>
        <mxCell id="Kyfm_cYFZnKpqrGlaWJu-205" value="" style="endArrow=classic;html=1;rounded=0;entryX=0.5;entryY=0;entryDx=0;entryDy=0;exitX=0.5;exitY=1;exitDx=0;exitDy=0;" edge="1" parent="1" source="Kyfm_cYFZnKpqrGlaWJu-131" target="Kyfm_cYFZnKpqrGlaWJu-199">
          <mxGeometry width="50" height="50" relative="1" as="geometry">
            <mxPoint x="10235" y="-1431" as="sourcePoint" />
            <mxPoint x="10530" y="-1320" as="targetPoint" />
          </mxGeometry>
        </mxCell>
        <mxCell id="Kyfm_cYFZnKpqrGlaWJu-206" value="Akinyi" style="whiteSpace=wrap;strokeWidth=2;" vertex="1" parent="1">
          <mxGeometry x="11040" y="-1340" width="80" height="49" as="geometry" />
        </mxCell>
        <mxCell id="Kyfm_cYFZnKpqrGlaWJu-207" value="Onyango" style="whiteSpace=wrap;strokeWidth=2;" vertex="1" parent="1">
          <mxGeometry x="11200" y="-1340" width="80" height="49" as="geometry" />
        </mxCell>
        <mxCell id="Kyfm_cYFZnKpqrGlaWJu-208" value="" style="whiteSpace=wrap;strokeWidth=2;fillColor=#7DCBFF;" vertex="1" parent="1">
          <mxGeometry x="11360" y="-1340" width="80" height="49" as="geometry" />
        </mxCell>
        <mxCell id="Kyfm_cYFZnKpqrGlaWJu-209" value="" style="whiteSpace=wrap;strokeWidth=2;fillColor=#40B3FF;" vertex="1" parent="1">
          <mxGeometry x="11520" y="-1340" width="80" height="49" as="geometry" />
        </mxCell>
        <mxCell id="Kyfm_cYFZnKpqrGlaWJu-210" value="Nereah" style="whiteSpace=wrap;strokeWidth=2;" vertex="1" parent="1">
          <mxGeometry x="11680" y="-1340" width="80" height="49" as="geometry" />
        </mxCell>
        <mxCell id="Kyfm_cYFZnKpqrGlaWJu-211" value="" style="whiteSpace=wrap;strokeWidth=2;fillColor=#8FCEFF;" vertex="1" parent="1">
          <mxGeometry x="11840" y="-1340" width="80" height="49" as="geometry" />
        </mxCell>
        <mxCell id="Kyfm_cYFZnKpqrGlaWJu-213" value="" style="endArrow=classic;html=1;rounded=0;entryX=0.5;entryY=0;entryDx=0;entryDy=0;exitX=0.5;exitY=1;exitDx=0;exitDy=0;" edge="1" parent="1" source="Kyfm_cYFZnKpqrGlaWJu-129" target="Kyfm_cYFZnKpqrGlaWJu-209">
          <mxGeometry width="50" height="50" relative="1" as="geometry">
            <mxPoint x="10990" y="-1130" as="sourcePoint" />
            <mxPoint x="11230" y="-1039" as="targetPoint" />
          </mxGeometry>
        </mxCell>
        <mxCell id="Kyfm_cYFZnKpqrGlaWJu-214" value="" style="endArrow=classic;html=1;rounded=0;entryX=0.5;entryY=0;entryDx=0;entryDy=0;exitX=0.5;exitY=1;exitDx=0;exitDy=0;" edge="1" parent="1" source="Kyfm_cYFZnKpqrGlaWJu-129" target="Kyfm_cYFZnKpqrGlaWJu-211">
          <mxGeometry width="50" height="50" relative="1" as="geometry">
            <mxPoint x="10850" y="-1421" as="sourcePoint" />
            <mxPoint x="11090" y="-1330" as="targetPoint" />
          </mxGeometry>
        </mxCell>
        <mxCell id="Kyfm_cYFZnKpqrGlaWJu-215" value="" style="endArrow=classic;html=1;rounded=0;entryX=0.5;entryY=0;entryDx=0;entryDy=0;exitX=0.5;exitY=1;exitDx=0;exitDy=0;" edge="1" parent="1" source="Kyfm_cYFZnKpqrGlaWJu-129" target="Kyfm_cYFZnKpqrGlaWJu-206">
          <mxGeometry width="50" height="50" relative="1" as="geometry">
            <mxPoint x="11000" y="-1120" as="sourcePoint" />
            <mxPoint x="11240" y="-1029" as="targetPoint" />
          </mxGeometry>
        </mxCell>
        <mxCell id="Kyfm_cYFZnKpqrGlaWJu-216" value="" style="endArrow=classic;html=1;rounded=0;entryX=0.5;entryY=0;entryDx=0;entryDy=0;exitX=0.5;exitY=1;exitDx=0;exitDy=0;" edge="1" parent="1" source="Kyfm_cYFZnKpqrGlaWJu-129" target="Kyfm_cYFZnKpqrGlaWJu-208">
          <mxGeometry width="50" height="50" relative="1" as="geometry">
            <mxPoint x="11010" y="-1110" as="sourcePoint" />
            <mxPoint x="11250" y="-1019" as="targetPoint" />
          </mxGeometry>
        </mxCell>
        <mxCell id="Kyfm_cYFZnKpqrGlaWJu-217" value="" style="endArrow=classic;html=1;rounded=0;entryX=0.5;entryY=0;entryDx=0;entryDy=0;exitX=0.5;exitY=1;exitDx=0;exitDy=0;" edge="1" parent="1" source="Kyfm_cYFZnKpqrGlaWJu-129" target="Kyfm_cYFZnKpqrGlaWJu-210">
          <mxGeometry width="50" height="50" relative="1" as="geometry">
            <mxPoint x="11020" y="-1100" as="sourcePoint" />
            <mxPoint x="11660" y="-1090" as="targetPoint" />
          </mxGeometry>
        </mxCell>
        <mxCell id="Kyfm_cYFZnKpqrGlaWJu-218" value="" style="endArrow=classic;html=1;rounded=0;entryX=0.5;entryY=0;entryDx=0;entryDy=0;exitX=0.5;exitY=1;exitDx=0;exitDy=0;" edge="1" parent="1" source="Kyfm_cYFZnKpqrGlaWJu-129" target="Kyfm_cYFZnKpqrGlaWJu-207">
          <mxGeometry width="50" height="50" relative="1" as="geometry">
            <mxPoint x="11010" y="-1110" as="sourcePoint" />
            <mxPoint x="11250" y="-1019" as="targetPoint" />
          </mxGeometry>
        </mxCell>
        <mxCell id="Kyfm_cYFZnKpqrGlaWJu-220" value="George" style="whiteSpace=wrap;strokeWidth=2;" vertex="1" parent="1">
          <mxGeometry x="12040" y="-1340" width="80" height="49" as="geometry" />
        </mxCell>
        <mxCell id="Kyfm_cYFZnKpqrGlaWJu-221" value="" style="endArrow=classic;html=1;rounded=0;entryX=0.5;entryY=0;entryDx=0;entryDy=0;exitX=0.5;exitY=1;exitDx=0;exitDy=0;" edge="1" parent="1" source="Kyfm_cYFZnKpqrGlaWJu-129" target="Kyfm_cYFZnKpqrGlaWJu-220">
          <mxGeometry width="50" height="50" relative="1" as="geometry">
            <mxPoint x="11405" y="-1431" as="sourcePoint" />
            <mxPoint x="11890" y="-1330" as="targetPoint" />
          </mxGeometry>
        </mxCell>
        <mxCell id="Kyfm_cYFZnKpqrGlaWJu-222" value="" style="endArrow=classic;html=1;rounded=0;exitX=0.5;exitY=1;exitDx=0;exitDy=0;entryX=0.5;entryY=0;entryDx=0;entryDy=0;" edge="1" parent="1" source="Kyfm_cYFZnKpqrGlaWJu-146" target="Kyfm_cYFZnKpqrGlaWJu-142">
          <mxGeometry width="50" height="50" relative="1" as="geometry">
            <mxPoint x="2530" y="-2328" as="sourcePoint" />
            <mxPoint x="2475" y="-2140" as="targetPoint" />
          </mxGeometry>
        </mxCell>
        <mxCell id="Kyfm_cYFZnKpqrGlaWJu-223" value="" style="endArrow=classic;html=1;rounded=0;entryX=0.5;entryY=0;entryDx=0;entryDy=0;exitX=0.5;exitY=1;exitDx=0;exitDy=0;" edge="1" parent="1" source="Kyfm_cYFZnKpqrGlaWJu-146" target="Kyfm_cYFZnKpqrGlaWJu-143">
          <mxGeometry width="50" height="50" relative="1" as="geometry">
            <mxPoint x="2580" y="-2328" as="sourcePoint" />
            <mxPoint x="2665" y="-2140" as="targetPoint" />
          </mxGeometry>
        </mxCell>
        <mxCell id="Kyfm_cYFZnKpqrGlaWJu-224" value="" style="endArrow=classic;html=1;rounded=0;entryX=0.5;entryY=0;entryDx=0;entryDy=0;exitX=0.5;exitY=1;exitDx=0;exitDy=0;" edge="1" parent="1" source="Kyfm_cYFZnKpqrGlaWJu-146" target="Kyfm_cYFZnKpqrGlaWJu-144">
          <mxGeometry width="50" height="50" relative="1" as="geometry">
            <mxPoint x="2530" y="-2328" as="sourcePoint" />
            <mxPoint x="2835" y="-2140" as="targetPoint" />
          </mxGeometry>
        </mxCell>
        <mxCell id="Kyfm_cYFZnKpqrGlaWJu-225" value="" style="endArrow=classic;html=1;rounded=0;entryX=0.5;entryY=0;entryDx=0;entryDy=0;exitX=0.5;exitY=1;exitDx=0;exitDy=0;" edge="1" parent="1" source="Kyfm_cYFZnKpqrGlaWJu-146" target="Kyfm_cYFZnKpqrGlaWJu-145">
          <mxGeometry width="50" height="50" relative="1" as="geometry">
            <mxPoint x="2530" y="-2328" as="sourcePoint" />
            <mxPoint x="2985" y="-2140" as="targetPoint" />
          </mxGeometry>
        </mxCell>
        <mxCell id="Kyfm_cYFZnKpqrGlaWJu-226" value="" style="endArrow=classic;html=1;rounded=0;entryX=0.5;entryY=0;entryDx=0;entryDy=0;exitX=0.5;exitY=1;exitDx=0;exitDy=0;" edge="1" parent="1" source="Kyfm_cYFZnKpqrGlaWJu-15" target="Kyfm_cYFZnKpqrGlaWJu-162">
          <mxGeometry width="50" height="50" relative="1" as="geometry">
            <mxPoint x="4870" y="212" as="sourcePoint" />
            <mxPoint x="5762" y="440" as="targetPoint" />
          </mxGeometry>
        </mxCell>
        <mxCell id="Kyfm_cYFZnKpqrGlaWJu-227" value="" style="endArrow=classic;html=1;rounded=0;exitX=0.5;exitY=1;exitDx=0;exitDy=0;entryX=0.5;entryY=0;entryDx=0;entryDy=0;" edge="1" parent="1" source="Kyfm_cYFZnKpqrGlaWJu-142" target="Kyfm_cYFZnKpqrGlaWJu-228">
          <mxGeometry width="50" height="50" relative="1" as="geometry">
            <mxPoint x="2530" y="-2328" as="sourcePoint" />
            <mxPoint x="2540" y="-1960" as="targetPoint" />
          </mxGeometry>
        </mxCell>
        <mxCell id="Kyfm_cYFZnKpqrGlaWJu-228" value="Oudo" style="whiteSpace=wrap;strokeWidth=2;" vertex="1" parent="1">
          <mxGeometry x="2600" y="-1970" width="89" height="49" as="geometry" />
        </mxCell>
        <mxCell id="Kyfm_cYFZnKpqrGlaWJu-229" value="Magawi" style="whiteSpace=wrap;strokeWidth=2;" vertex="1" parent="1">
          <mxGeometry x="2360" y="-1970" width="89" height="49" as="geometry" />
        </mxCell>
        <mxCell id="Kyfm_cYFZnKpqrGlaWJu-230" value="" style="whiteSpace=wrap;strokeWidth=2;fillColor=#E6D0DE;" vertex="1" parent="1">
          <mxGeometry x="2780" y="-1970" width="89" height="49" as="geometry" />
        </mxCell>
        <mxCell id="Kyfm_cYFZnKpqrGlaWJu-231" value="" style="whiteSpace=wrap;strokeWidth=2;fillColor=#E6D0DE;" vertex="1" parent="1">
          <mxGeometry x="2920" y="-1970" width="89" height="49" as="geometry" />
        </mxCell>
        <mxCell id="Kyfm_cYFZnKpqrGlaWJu-232" value="" style="whiteSpace=wrap;strokeWidth=2;fillColor=#E6D0DE;" vertex="1" parent="1">
          <mxGeometry x="3065" y="-1970" width="89" height="49" as="geometry" />
        </mxCell>
        <mxCell id="Kyfm_cYFZnKpqrGlaWJu-233" value="" style="endArrow=classic;html=1;rounded=0;exitX=0.5;exitY=1;exitDx=0;exitDy=0;entryX=0.5;entryY=0;entryDx=0;entryDy=0;" edge="1" parent="1" source="Kyfm_cYFZnKpqrGlaWJu-142" target="Kyfm_cYFZnKpqrGlaWJu-229">
          <mxGeometry width="50" height="50" relative="1" as="geometry">
            <mxPoint x="2665" y="-2091" as="sourcePoint" />
            <mxPoint x="2376" y="-1970" as="targetPoint" />
          </mxGeometry>
        </mxCell>
        <mxCell id="Kyfm_cYFZnKpqrGlaWJu-234" value="" style="whiteSpace=wrap;strokeWidth=2;fillColor=#FF3385;" vertex="1" parent="1">
          <mxGeometry x="2350" y="-1880" width="70" height="49" as="geometry" />
        </mxCell>
        <mxCell id="Kyfm_cYFZnKpqrGlaWJu-235" value="" style="whiteSpace=wrap;strokeWidth=2;fillColor=#F940FF;" vertex="1" parent="1">
          <mxGeometry x="2200" y="-1880" width="80" height="49" as="geometry" />
        </mxCell>
        <mxCell id="Kyfm_cYFZnKpqrGlaWJu-236" value="" style="whiteSpace=wrap;strokeWidth=2;fillColor=#33C2FF;" vertex="1" parent="1">
          <mxGeometry x="2511" y="-1880" width="89" height="49" as="geometry" />
        </mxCell>
        <mxCell id="Kyfm_cYFZnKpqrGlaWJu-237" value="" style="whiteSpace=wrap;strokeWidth=2;fillColor=#4DD5FF;" vertex="1" parent="1">
          <mxGeometry x="2679" y="-1880" width="89" height="49" as="geometry" />
        </mxCell>
        <mxCell id="Kyfm_cYFZnKpqrGlaWJu-238" value="" style="endArrow=classic;html=1;rounded=0;exitX=0.5;exitY=1;exitDx=0;exitDy=0;entryX=0.5;entryY=0;entryDx=0;entryDy=0;" edge="1" parent="1" source="Kyfm_cYFZnKpqrGlaWJu-229" target="Kyfm_cYFZnKpqrGlaWJu-234">
          <mxGeometry width="50" height="50" relative="1" as="geometry">
            <mxPoint x="2665" y="-2091" as="sourcePoint" />
            <mxPoint x="2655" y="-1960" as="targetPoint" />
          </mxGeometry>
        </mxCell>
        <mxCell id="Kyfm_cYFZnKpqrGlaWJu-240" value="" style="endArrow=classic;html=1;rounded=0;exitX=0.5;exitY=1;exitDx=0;exitDy=0;entryX=0.5;entryY=0;entryDx=0;entryDy=0;" edge="1" parent="1" source="Kyfm_cYFZnKpqrGlaWJu-229" target="Kyfm_cYFZnKpqrGlaWJu-235">
          <mxGeometry width="50" height="50" relative="1" as="geometry">
            <mxPoint x="2415" y="-1911" as="sourcePoint" />
            <mxPoint x="2395" y="-1870" as="targetPoint" />
          </mxGeometry>
        </mxCell>
        <mxCell id="Kyfm_cYFZnKpqrGlaWJu-241" value="" style="endArrow=classic;html=1;rounded=0;exitX=0.5;exitY=1;exitDx=0;exitDy=0;entryX=0.5;entryY=0;entryDx=0;entryDy=0;" edge="1" parent="1" source="Kyfm_cYFZnKpqrGlaWJu-228" target="Kyfm_cYFZnKpqrGlaWJu-236">
          <mxGeometry width="50" height="50" relative="1" as="geometry">
            <mxPoint x="2415" y="-1911" as="sourcePoint" />
            <mxPoint x="2250" y="-1870" as="targetPoint" />
          </mxGeometry>
        </mxCell>
        <mxCell id="Kyfm_cYFZnKpqrGlaWJu-242" value="" style="endArrow=classic;html=1;rounded=0;exitX=0.5;exitY=1;exitDx=0;exitDy=0;entryX=0.5;entryY=0;entryDx=0;entryDy=0;" edge="1" parent="1" source="Kyfm_cYFZnKpqrGlaWJu-228" target="Kyfm_cYFZnKpqrGlaWJu-237">
          <mxGeometry width="50" height="50" relative="1" as="geometry">
            <mxPoint x="2415" y="-1911" as="sourcePoint" />
            <mxPoint x="2566" y="-1870" as="targetPoint" />
          </mxGeometry>
        </mxCell>
        <mxCell id="Kyfm_cYFZnKpqrGlaWJu-243" value="" style="endArrow=classic;html=1;rounded=0;exitX=0.5;exitY=1;exitDx=0;exitDy=0;entryX=0.5;entryY=0;entryDx=0;entryDy=0;" edge="1" parent="1" source="Kyfm_cYFZnKpqrGlaWJu-142" target="Kyfm_cYFZnKpqrGlaWJu-230">
          <mxGeometry width="50" height="50" relative="1" as="geometry">
            <mxPoint x="2655" y="-1911" as="sourcePoint" />
            <mxPoint x="2566" y="-1870" as="targetPoint" />
          </mxGeometry>
        </mxCell>
        <mxCell id="Kyfm_cYFZnKpqrGlaWJu-244" value="" style="endArrow=classic;html=1;rounded=0;exitX=0.5;exitY=1;exitDx=0;exitDy=0;entryX=0.5;entryY=0;entryDx=0;entryDy=0;" edge="1" parent="1" source="Kyfm_cYFZnKpqrGlaWJu-142" target="Kyfm_cYFZnKpqrGlaWJu-231">
          <mxGeometry width="50" height="50" relative="1" as="geometry">
            <mxPoint x="2665" y="-1901" as="sourcePoint" />
            <mxPoint x="2576" y="-1860" as="targetPoint" />
          </mxGeometry>
        </mxCell>
        <mxCell id="Kyfm_cYFZnKpqrGlaWJu-245" value="" style="endArrow=classic;html=1;rounded=0;exitX=0.5;exitY=1;exitDx=0;exitDy=0;entryX=0.5;entryY=0;entryDx=0;entryDy=0;" edge="1" parent="1" source="Kyfm_cYFZnKpqrGlaWJu-142" target="Kyfm_cYFZnKpqrGlaWJu-232">
          <mxGeometry width="50" height="50" relative="1" as="geometry">
            <mxPoint x="2675" y="-1891" as="sourcePoint" />
            <mxPoint x="2586" y="-1850" as="targetPoint" />
          </mxGeometry>
        </mxCell>
      </root>
    </mxGraphModel>
  </diagram>
</mxfile>
